<svg width="82" height="80" viewBox="0 0 82 80" fill="none" xmlns="http://www.w3.org/2000/svg">
<rect width="80.6368" height="80" transform="translate(0.5)" fill="#111A31"/>
<path fill-rule="evenodd" clip-rule="evenodd" d="M36.9989 20.1155C34.7067 20.6128 32.0659 22.6951 30.1225 25.5376C28.6014 27.7625 28.2531 29.5501 29.0852 30.862C29.287 31.1801 29.301 31.2409 29.2119 31.411C28.8402 32.1204 28.719 33.7364 28.9665 34.6847C29.0394 34.964 29.2454 35.491 29.4242 35.8558C29.8445 36.713 30.737 37.6313 31.574 38.0677C32.1258 38.3554 32.1376 38.368 32.2652 38.8067C32.594 39.9377 33.2656 41.0408 34.1717 41.9381L34.7596 42.5204L34.7351 43.0528C34.7138 43.5132 34.7396 43.6387 34.9258 43.9808C35.335 44.7327 36.0542 45.0214 37.1092 44.8574C37.701 44.7653 38.0059 44.7999 38.0059 44.9592C38.0059 45.3153 37.8952 45.5279 37.6374 45.6666C37.3562 45.8181 36.8339 46.4267 36.8339 46.603C36.8339 46.6739 36.7031 46.6895 36.3455 46.6611C35.4237 46.5879 34.7177 46.958 34.3173 47.7245C33.8309 48.6556 34.1725 49.7528 35.1072 50.2615C35.6574 50.561 36.1972 50.6068 36.7927 50.4049C37.2065 50.2646 37.2884 50.2587 37.5148 50.3533L37.77 50.4599L37.7215 50.9526C37.6809 51.3648 37.6231 51.5109 37.3674 51.8473C37.1993 52.0685 36.9666 52.2875 36.8502 52.3341C36.7319 52.3813 36.2595 52.4108 35.779 52.4008C34.7854 52.3801 34.4169 52.4999 33.9072 53.0097C33.491 53.4259 33.3213 53.8433 33.3202 54.4535C33.319 55.0755 33.5523 55.6286 33.9705 55.9959C34.4227 56.3928 34.7137 56.5086 35.3561 56.5467C35.8386 56.5753 36.017 56.5517 36.3152 56.4198C36.6615 56.2666 36.702 56.2644 37.056 56.3787L37.4306 56.4997L37.4252 57.2152C37.419 58.0526 37.5401 58.3718 38.0538 58.8722C38.6857 59.4876 40.0002 60.0031 40.9291 60C42.3449 59.9951 43.8181 59.227 44.2998 58.2426C44.484 57.866 44.5045 57.7447 44.48 57.1736L44.4523 56.5294L44.8153 56.3945C45.1641 56.2648 45.1939 56.2655 45.578 56.4114C46.6885 56.8334 47.9644 56.3512 48.4115 55.3406C48.8793 54.2829 48.495 53.1939 47.4496 52.6148C47.0462 52.3913 46.994 52.3829 46.0249 52.3829H45.019L44.5989 51.9209C44.2077 51.4908 44.178 51.4303 44.1671 51.0419C44.1606 50.8125 44.1519 50.5844 44.1476 50.535C44.1433 50.4855 44.2748 50.3984 44.4398 50.3413C44.6973 50.2522 44.7728 50.2544 44.9715 50.3572C45.5878 50.6759 46.5469 50.5352 47.1238 50.0414C48.5707 48.8029 47.5498 46.5046 45.6213 46.6594L45.1107 46.7004L44.9619 46.4087C44.8009 46.093 44.3604 45.6673 44.1137 45.5891C44.0018 45.5535 43.951 45.4515 43.9258 45.211C43.9069 45.0299 43.8997 44.8707 43.9099 44.8571C43.9452 44.8103 44.456 44.8206 45.0817 44.8809C45.6387 44.9346 45.7554 44.9219 46.0965 44.771C46.6008 44.548 46.8162 44.3414 47.0405 43.8659C47.2406 43.4415 47.2762 42.9778 47.1389 42.584C47.0557 42.3453 47.0664 42.3211 47.3699 42.0614C48.1191 41.4201 48.9602 40.0618 49.3367 38.8855L49.5052 38.3589L50.0652 38.0666C50.7543 37.7069 51.6731 36.8114 52.0923 36.0906C52.8523 34.7839 53.0145 33.0693 52.5096 31.6783L52.3294 31.1819L52.5525 30.8496C53.1948 29.8932 53.1528 28.691 52.4224 27.1316C51.7808 25.7618 50.809 24.4342 49.4551 23.0777C46.4296 20.0468 43.2983 19.1849 41.1901 20.8028L40.8189 21.0877L40.4477 20.8028C39.5129 20.0854 38.275 19.8387 36.9989 20.1155ZM38.8848 21.479C39.2204 21.5827 39.5111 21.742 39.7526 21.9545L40.1157 22.2741V23.3223C40.1157 23.8988 40.1068 24.3701 40.0961 24.3695C40.0854 24.369 39.8537 24.2986 39.5813 24.2132C38.8933 23.9976 38.6654 24.0116 38.3906 24.2864C37.9243 24.7527 38.1846 25.3173 38.9103 25.4136C39.1241 25.4419 39.425 25.5508 39.579 25.6553C40.1297 26.0295 40.1157 25.9001 40.1157 30.6177C40.1157 34.3537 40.1009 34.878 39.9897 35.0988C39.3948 36.28 37.8675 36.3984 37.1106 35.3221C36.901 35.0241 36.8737 34.9226 36.879 34.4633C36.8822 34.1768 36.9124 33.7993 36.9459 33.6244C36.9988 33.3491 36.9809 33.2763 36.8133 33.0814C36.5794 32.8094 36.1525 32.7727 35.8983 33.0029C35.6422 33.2346 35.4816 33.9164 35.522 34.5999C35.5622 35.2777 35.7585 35.7898 36.1712 36.2935C36.3208 36.476 36.4432 36.6472 36.4432 36.6739C36.4432 36.7925 35.2889 37.2593 34.7853 37.3443C32.8228 37.6753 30.8657 36.4345 30.31 34.5068C30.1455 33.9363 30.1423 32.9428 30.3031 32.3896L30.4264 31.9655L30.9539 32.1473C31.6526 32.3882 32.5848 32.5741 33.1748 32.5904C33.6069 32.6023 33.6704 32.583 33.8368 32.3896C34.0689 32.1198 34.0721 31.7819 33.8451 31.5261C33.695 31.3569 33.546 31.31 32.8252 31.2053C30.0146 30.7971 29.4045 29.8986 30.4291 27.6772C31.5527 25.2412 34.3435 22.4782 36.5028 21.6638C37.4914 21.291 38.1185 21.2424 38.8848 21.479ZM45.0178 21.6236C46.7075 22.2403 48.4738 23.7006 50.0153 25.7555C51.0011 27.0696 51.5571 28.2164 51.6529 29.1329C51.7737 30.2887 50.9589 30.8906 48.8504 31.2036C48.433 31.2655 48.0207 31.3541 47.9341 31.4004C47.5913 31.5838 47.5185 32.0382 47.7789 32.3691C47.924 32.5536 47.9933 32.575 48.4463 32.575C49.0404 32.575 49.9443 32.4023 50.6832 32.1476L51.21 31.966L51.3278 32.3628C51.4628 32.8176 51.4799 33.8552 51.3609 34.3721C50.91 36.3297 48.8579 37.6825 46.8525 37.3443C46.3645 37.2619 45.1946 36.7939 45.1946 36.681C45.1946 36.6581 45.323 36.4722 45.48 36.2677C45.9889 35.6045 46.0932 35.2888 46.0932 34.4112C46.0932 33.7857 46.062 33.5677 45.9369 33.3184C45.6634 32.7733 45.1769 32.6646 44.7993 33.0643C44.6591 33.2128 44.6429 33.2921 44.6922 33.5908C44.7241 33.7842 44.7534 34.1768 44.7575 34.4633C44.764 34.9237 44.7373 35.0233 44.5272 35.3221C43.9484 36.1453 42.8693 36.3075 42.1142 35.6851C41.5284 35.2022 41.5221 35.1659 41.5221 32.2617C41.5221 29.4045 41.5226 29.4014 42.0224 29.0203C42.1798 28.9002 42.4575 28.7906 42.7023 28.7519C43.4096 28.6401 43.7148 28.0407 43.2838 27.6097C43.01 27.3359 42.4442 27.364 41.6589 27.6904C41.5302 27.7438 41.5221 27.5868 41.5221 25.0193V22.2914L41.7761 22.0558C42.6082 21.2835 43.6907 21.1392 45.0178 21.6236ZM25.9302 22.5308C25.6954 22.7654 25.67 23.2083 25.8793 23.4176C25.9568 23.4951 26.4403 23.8004 26.9537 24.0961C28.0267 24.7142 28.3016 24.7683 28.6005 24.4208C28.8059 24.1821 28.8323 23.9554 28.6869 23.6796C28.559 23.437 26.6402 22.3389 26.3443 22.3389C26.2124 22.3389 26.0439 22.4169 25.9302 22.5308ZM54.0593 22.9177C53.4721 23.2535 53.007 23.5734 52.951 23.6796C52.8055 23.9554 52.8319 24.1821 53.0373 24.4208C53.3403 24.7731 53.6216 24.7182 54.6894 24.0981C55.1991 23.8021 55.6798 23.4962 55.7578 23.4183C56.1044 23.0716 55.7892 22.3389 55.2935 22.3389C55.1601 22.3389 54.666 22.5707 54.0593 22.9177ZM35.1539 25.4946C33.8747 25.8057 32.9372 26.8866 32.8628 28.1357C32.8345 28.6133 32.8489 28.6753 33.0321 28.8584C33.4219 29.2483 34.0501 29.0163 34.1384 28.4499C34.307 27.3683 34.774 26.864 35.7202 26.742C36.1874 26.6817 36.4432 26.4622 36.4432 26.1214C36.4432 25.7606 36.3766 25.6307 36.125 25.5006C35.8659 25.3666 35.6849 25.3654 35.1539 25.4946ZM45.4886 25.5086C45.272 25.6261 45.1441 25.9213 45.1858 26.2068C45.2279 26.4949 45.4932 26.6912 45.9067 26.7402C46.7482 26.8399 47.3246 27.3959 47.4595 28.2383C47.5154 28.5869 47.5863 28.7523 47.7364 28.883C48.0092 29.1207 48.3538 29.1104 48.6072 28.857C48.794 28.6701 48.8062 28.6158 48.7712 28.1268C48.6785 26.8319 47.7043 25.7495 46.3824 25.473C45.855 25.3626 45.75 25.3668 45.4886 25.5086ZM23.7303 30.817C23.5222 30.9628 23.4401 31.3079 23.5467 31.5885C23.6767 31.9303 24.0336 32.028 25.1523 32.028C25.8337 32.028 26.2171 31.9933 26.4055 31.9146C26.8531 31.7276 26.9469 31.205 26.5959 30.854C26.4548 30.713 26.3319 30.6997 25.1697 30.6997C24.1651 30.6997 23.8626 30.7244 23.7303 30.817ZM55.0419 30.854C54.6909 31.205 54.7847 31.7276 55.2323 31.9146C55.4207 31.9933 55.8041 32.028 56.4855 32.028C57.6042 32.028 57.9611 31.9303 58.0911 31.5885C58.1355 31.4714 58.1501 31.2764 58.1234 31.1551C58.0335 30.7455 57.8671 30.6997 56.4681 30.6997C55.3059 30.6997 55.183 30.713 55.0419 30.854ZM41.2214 36.673C41.7837 37.1785 42.3311 37.3701 43.2216 37.3729C43.6191 37.3742 43.9444 37.3861 43.9444 37.3993C43.9444 37.4126 43.8266 37.6599 43.6826 37.9489C43.5386 38.2379 43.3277 38.7213 43.2137 39.0231C42.8383 40.018 42.2662 40.4992 41.3236 40.6126C40.0328 40.768 39.2383 40.2822 38.7129 39.0163C38.5714 38.6753 38.3458 38.1853 38.2118 37.9274C38.0777 37.6696 37.9591 37.441 37.9481 37.4195C37.9372 37.398 38.2007 37.3769 38.5336 37.3725C39.3044 37.3622 39.9019 37.1399 40.4063 36.6756C40.6118 36.4865 40.7923 36.3304 40.8074 36.3287C40.8226 36.327 41.0089 36.4819 41.2214 36.673ZM27.9262 38.0235C27.642 38.132 25.9307 39.1657 25.8418 39.2826C25.551 39.665 25.8801 40.3106 26.3659 40.3106C26.5842 40.3106 27.7933 39.6781 28.4897 39.1996C28.7379 39.0291 28.8455 38.615 28.7084 38.3588C28.6361 38.2236 28.1696 37.9435 28.0654 37.9727C28.0533 37.976 27.9906 37.999 27.9262 38.0235ZM53.342 38.0224C52.9306 38.0996 52.715 38.7257 52.9888 39.0475C53.2274 39.3278 55.0038 40.3106 55.2719 40.3106C55.7602 40.3106 56.0865 39.6648 55.7934 39.2789C55.6837 39.1346 53.8881 38.0795 53.6573 38.0238C53.5797 38.005 53.4378 38.0044 53.342 38.0224ZM37.1397 38.7625C37.2842 39.0767 37.5413 39.6268 37.7111 39.9848C38.0415 40.6816 38.052 40.8897 37.7705 41.1711C37.6389 41.3028 37.5151 41.3233 36.8935 41.3162C36.4954 41.3116 36.0707 41.3472 35.9498 41.3952C35.8288 41.4434 35.7183 41.4827 35.7043 41.4827C35.615 41.4827 34.9147 40.8251 34.6151 40.4599C34.2485 40.013 33.7084 39.0596 33.7084 38.8594C33.7084 38.7762 33.8184 38.7479 34.1414 38.7479C34.745 38.7479 35.6799 38.5416 36.2424 38.2843C36.5032 38.165 36.7528 38.0953 36.7968 38.1292C36.841 38.1632 36.9952 38.4481 37.1397 38.7625ZM45.5367 38.361C45.9854 38.5595 46.9446 38.7479 47.5066 38.7479C47.7929 38.7479 47.9294 38.7794 47.9292 38.8455C47.9287 39.0506 47.3803 40.0199 47.0004 40.487C46.4603 41.1512 46.1002 41.4301 45.8766 41.3573C45.7809 41.3261 45.39 41.3066 45.0079 41.3141C44.6022 41.322 44.2709 41.2923 44.211 41.2426C44.1548 41.1958 44.0679 41.0341 44.0181 40.8831C43.9376 40.6393 43.9496 40.5679 44.1251 40.2447C44.2337 40.0446 44.4093 39.65 44.5153 39.3677C44.7594 38.7179 45.022 38.2009 45.1081 38.2009C45.1448 38.2009 45.3376 38.2729 45.5367 38.361ZM39.5213 41.7215C39.721 41.8098 40.078 41.9136 40.3147 41.9521C40.8741 42.0432 41.9868 41.9172 42.4539 41.71C42.7884 41.5616 42.8164 41.56 42.8896 41.6854C43.26 42.3205 43.9072 42.6705 44.7001 42.6644C44.9752 42.6622 45.2257 42.6447 45.2568 42.6255C45.2879 42.6063 45.4261 42.6379 45.5638 42.6958C45.8471 42.815 45.9594 43.097 45.8241 43.3498C45.7014 43.579 45.4387 43.6222 44.8267 43.5136C44.1922 43.4011 43.5986 43.4878 43.0304 43.7759C42.3703 44.1106 42.216 44.4519 42.4875 44.9768C42.7491 45.4828 42.6024 45.746 41.8454 46.1292C41.1642 46.474 40.1269 46.3202 39.5717 45.7921C39.2895 45.5236 39.2658 45.4719 39.3273 45.2577C39.3647 45.1273 39.4343 44.9478 39.482 44.8586C39.7304 44.3944 39.4255 43.9599 38.647 43.6686C38.1575 43.4855 37.5098 43.4424 36.813 43.5468C36.4284 43.6044 36.3397 43.5936 36.2075 43.474C36.1222 43.3969 36.0525 43.2392 36.0525 43.1236C36.0525 42.7538 36.2411 42.6713 37.1529 42.6422C37.9138 42.6178 38.0106 42.5968 38.364 42.3786C38.5753 42.2482 38.8333 42.0108 38.9372 41.8512C39.041 41.6915 39.1332 41.5608 39.1421 41.5608C39.1509 41.5608 39.3216 41.6331 39.5213 41.7215ZM38.9634 47.0313C39.2215 47.2037 39.6785 47.4193 39.9788 47.5105C40.9821 47.8153 42.2451 47.5986 43.0511 46.9833C43.4816 46.6547 43.6047 46.697 43.92 47.2824C44.0408 47.5067 44.2628 47.7739 44.4132 47.8762C44.6667 48.0486 44.7361 48.0586 45.3634 48.0129C45.9992 47.9665 46.0531 47.9748 46.2555 48.1488C46.4057 48.278 46.4708 48.4085 46.4708 48.5798C46.4708 49.1089 45.92 49.3523 45.3642 49.0688C44.9693 48.8674 44.6403 48.8629 44.0916 49.0517C43.1257 49.384 42.5379 49.8059 42.5379 50.1667C42.5379 50.2471 42.6083 50.444 42.6942 50.6044C42.9158 51.0179 42.8968 51.3335 42.6356 51.5783C41.8343 52.3292 40.3584 52.395 39.4283 51.7212C39.0332 51.4351 38.9712 51.1913 39.1757 50.7289C39.507 49.98 39.3115 49.653 38.2738 49.221C37.4591 48.8819 37.0426 48.8424 36.5667 49.0591C36.1439 49.2518 35.8836 49.2262 35.6032 48.9645C35.3117 48.6924 35.3801 48.2714 35.7468 48.0818C35.9144 47.9951 36.1284 47.978 36.6164 48.012C37.4168 48.0679 37.6622 47.9441 37.975 47.3269C38.1528 46.976 38.3515 46.73 38.4649 46.7204C38.481 46.719 38.7054 46.8589 38.9634 47.0313ZM38.8659 52.9301C39.5213 53.3712 40.2123 53.5425 41.1652 53.5001C41.8558 53.4694 42.0371 53.4309 42.491 53.2185C42.7802 53.0832 43.1143 52.903 43.2335 52.8181L43.4503 52.6637L43.795 53.0153C44.4321 53.6651 45.0954 53.8624 46.1713 53.7224C46.5905 53.6679 46.6688 53.6808 46.9111 53.844C47.2749 54.0892 47.382 54.4535 47.1933 54.8038C46.9528 55.2504 46.4351 55.357 45.8588 55.0786C45.6869 54.9956 45.4383 54.9265 45.3065 54.925C44.688 54.9181 43.1022 55.6276 42.9399 55.9838C42.8162 56.2552 42.8266 56.3663 43.0092 56.7243C43.4031 57.4963 43.12 58.015 42.0691 58.4464C41.7385 58.5821 41.486 58.6228 40.9752 58.6227C40.1315 58.6224 39.5176 58.4023 39.0413 57.9293C38.6459 57.5368 38.6239 57.3446 38.9063 56.7477C39.1524 56.2275 39.1066 56.0006 38.6951 55.7025C38.2614 55.3883 37.2751 54.9944 36.7993 54.9453C36.4839 54.9128 36.3244 54.9399 36.0709 55.0693C35.5931 55.313 35.1581 55.2902 34.8744 55.0065C34.5634 54.6955 34.5625 54.3151 34.8719 53.9687C35.1163 53.6952 35.0349 53.7074 36.3465 53.747C36.8321 53.7616 36.9844 53.7311 37.4014 53.5354C37.6931 53.3986 37.9985 53.1789 38.1622 52.9882C38.3126 52.813 38.4409 52.6666 38.4474 52.663C38.4538 52.6593 38.6421 52.7795 38.8659 52.9301Z" fill="white"/>
</svg>
