<svg width="81" height="80" viewBox="0 0 81 80" fill="none" xmlns="http://www.w3.org/2000/svg">
<rect width="79.9853" height="80" transform="translate(0.5)" fill="#111A31"/>
<path fill-rule="evenodd" clip-rule="evenodd" d="M39.624 20.1973C39.1691 20.4092 38.7106 20.8738 38.5301 21.306C38.3816 21.6612 38.3829 22.514 38.5324 22.8719C38.7015 23.2768 39.1911 23.7859 39.58 23.9612L39.9165 24.113V25.7265C39.9165 26.6139 39.9053 27.34 39.8916 27.34C39.878 27.34 39.5496 27.2281 39.1619 27.0915C38.3092 26.7907 37.6334 26.7629 37.097 27.0063C36.8994 27.096 36.4041 27.4903 35.9964 27.8826C35.1713 28.6764 34.9476 28.7977 34.1623 28.8782C33.3376 28.9626 32.7347 29.0944 32.4031 29.2628C32.111 29.4111 31.639 29.8792 31.554 30.1047C31.5274 30.1755 30.9064 29.6151 29.8735 28.5876L28.2352 26.958L28.4184 26.5444C28.687 25.9381 28.6777 25.1108 28.3953 24.499C27.9845 23.6088 27.2017 23.0742 26.226 23.0177C23.7296 22.873 22.5236 25.841 24.3952 27.5236C25.1511 28.2034 26.0924 28.348 27.0379 27.9297L27.4418 27.7511L29.2175 29.5254C30.2137 30.5208 30.9933 31.3656 30.9933 31.4497C30.9933 31.5322 30.9164 31.7504 30.8225 31.9345C30.6922 32.19 30.4602 32.395 29.8426 32.8008C28.9225 33.4053 28.4736 33.832 28.2871 34.2799C28.1521 34.6038 28.132 35.3492 28.2314 36.3465C28.3055 37.091 28.2265 37.39 27.7464 38.1803C27.5187 38.5552 27.29 38.9903 27.2383 39.1471L27.1442 39.4321H25.8707H24.5973L24.4455 39.0956C24.2702 38.7068 23.7611 38.2172 23.3562 38.048C22.9984 37.8985 22.1456 37.8973 21.7903 38.0457C20.5266 38.5738 20.0958 40.1906 20.9283 41.282C21.8776 42.5266 23.789 42.3061 24.4725 40.8731L24.6028 40.5997H25.871H27.1391L27.2803 40.9541C27.3579 41.149 27.6052 41.6087 27.8298 41.9757C28.2889 42.7257 28.2978 42.7793 28.2006 44.2024C28.0913 45.8019 28.3126 46.2213 29.7602 47.1576C30.5509 47.6691 30.8489 47.983 30.9645 48.4264C31.0082 48.5939 30.8542 48.7844 29.9094 49.7311L28.8033 50.8395L28.5249 50.7232C28.1333 50.5596 27.3512 50.5793 26.9468 50.763C26.5569 50.9401 26.1259 51.347 25.9329 51.7201C25.8586 51.864 25.7797 52.2341 25.7576 52.5427C25.7226 53.0307 25.7466 53.1635 25.9422 53.5632C26.2027 54.0957 26.6163 54.4686 27.1465 54.6492C28.7984 55.2121 30.369 53.6234 29.7826 51.983L29.6634 51.6494L30.5562 50.7529C31.0473 50.2598 31.4686 49.8572 31.4923 49.8582C31.5159 49.8592 31.6355 50.0017 31.7579 50.1748C32.082 50.6333 32.681 50.9275 33.5108 51.0356C35.0777 51.2398 35.0072 51.2098 35.903 52.0563C36.8056 52.9095 37.1658 53.1209 37.8095 53.1756C38.1976 53.2085 39.0057 53.0235 39.7925 52.7216C39.8996 52.6805 39.9165 52.8951 39.9165 54.3001V55.9261L39.7219 55.975C39.4185 56.0511 38.7413 56.6941 38.572 57.0667C38.2174 57.8474 38.4754 58.9722 39.1343 59.518C40.4806 60.6334 42.5641 59.6888 42.5814 57.9553C42.5894 57.1562 42.1147 56.3837 41.4243 56.0723L41.084 55.9188V54.2964C41.084 52.986 41.1052 52.6821 41.1942 52.7162C41.8135 52.9539 42.7531 53.192 43.069 53.1913C43.6785 53.1901 44.224 52.8822 45.107 52.0409C45.9738 51.2152 45.9129 51.241 47.4806 51.0369C48.3127 50.9287 48.7124 50.7355 49.1629 50.2236L49.5065 49.8333L49.92 50.2201C50.388 50.6578 50.5925 50.6964 50.8866 50.4022C51.2083 50.0806 51.1481 49.8972 50.5025 49.2315L49.9137 48.6242L50.0478 48.3033C50.2352 47.8549 50.445 47.651 51.2581 47.1271C52.7649 46.1563 52.9581 45.7405 52.7594 43.8959L52.6551 42.9278L52.9062 42.4518C53.0442 42.1899 53.3178 41.6661 53.5142 41.2877L53.8713 40.5997H55.1373H56.4032L56.5566 40.94C56.749 41.3665 57.3173 41.874 57.7467 42.0027C58.7356 42.299 59.732 41.9039 60.2099 41.0259C60.9934 39.5863 60.0178 37.9304 58.3883 37.9337C58.083 37.9343 57.7567 37.9943 57.5511 38.0877C57.1784 38.2569 56.5354 38.9342 56.4593 39.2376C56.4108 39.4308 56.4016 39.4321 55.1362 39.4321H53.8618L53.5613 38.8275C53.3959 38.4949 53.1232 37.9714 52.9553 37.6639L52.6499 37.1049L52.758 36.1071C52.9562 34.2771 52.7398 33.828 51.1747 32.8219C50.3681 32.3034 50.2444 32.1819 50.0541 31.7214L49.9176 31.3912L52.1605 29.1483L54.4034 26.9054L54.9165 27.0925C56.0882 27.5197 57.3437 27.0003 57.9031 25.857C58.5357 24.5642 57.9044 23.0157 56.5363 22.5038C55.6078 22.1564 54.7456 22.3502 54.0085 23.0719C53.6293 23.4433 53.4963 23.6433 53.3922 23.9985C53.2193 24.5891 53.2283 25.0248 53.4252 25.5887L53.5853 26.0474L51.5252 28.1141C49.7503 29.8948 49.4536 30.1603 49.3817 30.0322C49.0682 29.4734 48.2495 29.0079 47.5798 29.0079C47.1063 29.0079 46.838 29.3609 46.9958 29.7761C47.073 29.9788 47.309 30.1094 47.7891 30.2151C48.1773 30.3005 48.451 30.6785 48.7475 31.5386C49.1904 32.8234 49.4624 33.1579 50.6573 33.8866C50.9461 34.0627 51.2981 34.3386 51.4396 34.4996L51.6967 34.7925L51.6241 35.5487C51.5189 36.6457 51.536 37.4311 51.6726 37.7642C51.7385 37.9248 52.0126 38.4126 52.2818 38.8484C52.9321 39.9011 52.9242 40.1176 52.1927 41.2987C51.537 42.3573 51.4542 42.7234 51.5905 43.9581C51.7472 45.3771 51.7034 45.4688 50.5075 46.2253C49.4288 46.9077 49.1884 47.2151 48.7259 48.5035C48.3053 49.6754 48.1833 49.7875 47.2135 49.8962C45.6136 50.0754 45.3167 50.202 44.3781 51.1055C43.2607 52.1812 43.2819 52.1758 41.94 51.719C40.7279 51.3063 40.2005 51.3069 39.0036 51.7223C37.705 52.173 37.7391 52.1818 36.6066 51.1027C35.7092 50.2475 35.3656 50.0873 34.1171 49.9416C32.7608 49.7834 32.6589 49.6955 32.1486 48.2437C31.8036 47.2622 31.5236 46.9149 30.5758 46.2931C30.1403 46.0075 29.6762 45.6545 29.5442 45.5086L29.3043 45.2435L29.3725 44.2768C29.4928 42.5718 29.4263 42.2715 28.6703 41.1064C28.4791 40.8118 28.2799 40.4278 28.2275 40.2531C28.1411 39.9645 28.1551 39.8913 28.3799 39.4544C28.516 39.1899 28.7857 38.7075 28.9792 38.3825C29.424 37.6357 29.4951 37.2036 29.3824 35.9345C29.2634 34.5954 29.2731 34.5759 30.4612 33.7947C31.5786 33.0599 31.7897 32.7931 32.2447 31.5395C32.5729 30.6355 32.7376 30.3735 33.0537 30.2526C33.155 30.2139 33.6699 30.1256 34.1981 30.0563C35.4189 29.8962 35.7443 29.7329 36.7752 28.7623C37.7315 27.8621 37.7651 27.8554 39.0825 28.299C40.2358 28.6874 40.7052 28.6874 41.9066 28.299C43.2338 27.8699 43.2859 27.8782 44.0901 28.6465C44.6315 29.1638 44.809 29.2858 45.0195 29.2858C45.3277 29.2858 45.5873 29.0127 45.5873 28.6885C45.5873 28.4074 44.419 27.2403 43.9036 27.0064C43.2915 26.7286 42.3386 26.8321 41.2299 27.2967C41.0938 27.3537 41.084 27.2484 41.084 25.7381V24.1185L41.3575 23.9881C41.817 23.769 42.1824 23.4062 42.3877 22.9652C43.1986 21.2237 41.3645 19.3868 39.624 20.1973ZM41.1475 21.4447C41.284 21.581 41.3669 21.7775 41.3956 22.0324C41.4353 22.3852 41.4157 22.4383 41.1446 22.7093C40.8972 22.9568 40.793 23.0031 40.4877 23.0016C39.929 22.9988 39.5829 22.639 39.5829 22.0612C39.5829 21.7484 39.8317 21.3679 40.1156 21.2463C40.4079 21.1211 40.923 21.2201 41.1475 21.4447ZM56.2601 23.6499C56.6047 23.8231 56.8879 24.2182 56.9662 24.6353C57.0345 24.9997 56.759 25.6166 56.4172 25.8646C55.8675 26.2633 54.8969 26.0303 54.5792 25.4232C54.2459 24.7864 54.4895 23.9891 55.1114 23.6812C55.5465 23.4659 55.8759 23.4569 56.2601 23.6499ZM26.7351 24.3352C27.5234 24.7374 27.7224 25.8078 27.1335 26.4785C26.6585 27.0197 26.071 27.1414 25.4311 26.8316C24.9074 26.5781 24.6228 26.0657 24.6725 25.466C24.7581 24.4342 25.8046 23.8604 26.7351 24.3352ZM35.8206 31.7872C35.1187 32.0481 34.5591 32.7407 34.4472 33.487C34.3218 34.3229 34.8123 35.2396 35.5933 35.6287C36.7979 36.229 38.2715 35.5566 38.5813 34.2652C38.7171 33.6992 38.634 33.2148 38.3077 32.6709C37.9301 32.0412 37.4075 31.7302 36.674 31.6987C36.3571 31.6852 35.9937 31.7228 35.8206 31.7872ZM37.0516 33.0046C37.823 33.475 37.4544 34.6787 36.539 34.6787C36.1071 34.6787 35.7965 34.4564 35.663 34.0519C35.4678 33.4606 35.9148 32.8446 36.539 32.8446C36.6766 32.8446 36.9073 32.9166 37.0516 33.0046ZM45.8679 36.7709C45.3539 36.9199 44.8136 37.3653 44.5616 37.8476C44.3506 38.2518 44.3256 38.3767 44.3511 38.8982C44.3891 39.6759 44.6901 40.1913 45.3308 40.5754C45.8747 40.9016 46.3591 40.9848 46.9251 40.849C48.2148 40.5396 48.8889 39.0655 48.2901 37.8639C47.8406 36.9619 46.8114 36.4975 45.8679 36.7709ZM46.7882 37.9639C47.1599 38.1192 47.3386 38.3952 47.3386 38.814C47.3386 39.461 46.7435 39.885 46.1229 39.6801C45.366 39.4304 45.3041 38.2856 46.0305 37.9697C46.3686 37.8226 46.4487 37.822 46.7882 37.9639ZM23.0138 39.1917C23.3288 39.3527 23.484 39.6197 23.486 40.0034C23.4875 40.3086 23.4411 40.4128 23.1937 40.6603C22.9227 40.9313 22.8695 40.951 22.5167 40.9113C21.9575 40.8482 21.6948 40.5593 21.6948 40.0071C21.6948 39.636 21.7276 39.556 21.9672 39.3419C22.2613 39.079 22.6769 39.0194 23.0138 39.1917ZM58.9495 39.2625C59.2778 39.5208 59.3907 39.8758 59.2713 40.2744C59.0276 41.0878 57.9236 41.1576 57.556 40.3828C57.263 39.7654 57.6952 39.0986 58.3883 39.0986C58.6128 39.0986 58.8169 39.1582 58.9495 39.2625ZM35.7468 41.7333C35.1805 41.8838 34.4931 42.3443 34.1614 42.7953C33.7322 43.3789 33.5599 43.9657 33.5939 44.7277C33.6306 45.5521 33.8845 46.1463 34.4351 46.697C35.1793 47.4411 36.2176 47.7385 37.2152 47.4933C38.6099 47.1505 39.4956 46.0277 39.4956 44.6026C39.4956 43.2019 38.6345 42.0793 37.2921 41.7296C36.6896 41.5727 36.3478 41.5735 35.7468 41.7333ZM37.4372 43.0356C37.6271 43.1407 37.8968 43.3893 38.0364 43.5882C38.2663 43.9156 38.2903 44.0108 38.2903 44.595C38.2903 45.158 38.2613 45.284 38.0628 45.584C37.3489 46.6628 35.7309 46.6655 35.0186 45.589C34.7008 45.1088 34.6548 44.3433 34.9119 43.8122C35.3627 42.8811 36.5161 42.5265 37.4372 43.0356ZM51.7964 51.312C51.4753 51.633 51.535 51.8173 52.1737 52.4758L52.7556 53.076L52.5906 53.5102C52.1071 54.7827 52.6117 56.0855 53.8433 56.7447C54.2985 56.9883 55.5114 56.968 56.0116 56.7085C56.5606 56.4235 56.9688 55.9903 57.224 55.4216C57.4219 54.9806 57.4448 54.8425 57.4117 54.2852C57.353 53.296 56.9193 52.6166 56.0786 52.1964C55.4448 51.8797 54.6781 51.8466 53.9946 52.1063L53.5604 52.2713L52.9602 51.6893C52.3016 51.0507 52.1174 50.991 51.7964 51.312ZM28.3447 51.8719C28.5546 51.9795 28.7417 52.3864 28.7417 52.7358C28.7417 53.0826 28.4098 53.4803 28.0435 53.5722C27.5109 53.7059 26.907 53.2614 26.907 52.7358C26.907 52.2206 27.1443 51.9081 27.6575 51.7475C27.8006 51.7028 28.1315 51.7626 28.3447 51.8719ZM55.5968 53.235C56.2084 53.5513 56.4639 54.5427 56.0795 55.1082C55.6509 55.739 54.9421 55.9504 54.2915 55.6417C53.7593 55.3892 53.4456 54.7446 53.5595 54.1373C53.6298 53.7627 54.1061 53.2194 54.4578 53.1125C54.7747 53.0162 55.2785 53.0704 55.5968 53.235ZM40.8874 57.0813C41.6433 57.4399 41.5598 58.5469 40.7588 58.7869C40.1378 58.973 39.5829 58.5597 39.5829 57.9113C39.5829 57.5 39.7591 57.2195 40.1148 57.0648C40.4553 56.9166 40.5444 56.9185 40.8874 57.0813Z" fill="white"/>
</svg>
