<svg width="68" height="80" viewBox="0 0 68 80" fill="none" xmlns="http://www.w3.org/2000/svg">
<path d="M54.7368 7.10531H47.9158C47.6446 6.33833 47.1431 5.67385 46.4799 5.20279C45.8166 4.73174 45.024 4.4771 44.2105 4.47373H40.9211C40.1208 3.29055 39.0426 2.32164 37.7809 1.65185C36.5193 0.982066 35.1126 0.631836 33.6842 0.631836C32.2558 0.631836 30.8492 0.982066 29.5875 1.65185C28.3259 2.32164 27.2477 3.29055 26.4474 4.47373H23.1579C22.3444 4.4771 21.5518 4.73174 20.8886 5.20279C20.2253 5.67385 19.7238 6.33833 19.4526 7.10531H12.6316C9.49194 7.10879 6.48188 8.35756 4.26181 10.5776C2.04174 12.7977 0.792972 15.8078 0.78949 18.9474V67.6316C0.792972 70.7713 2.04174 73.7814 4.26181 76.0014C6.48188 78.2215 9.49194 79.4703 12.6316 79.4737H54.7368C57.8765 79.4703 60.8866 78.2215 63.1066 76.0014C65.3267 73.7814 66.5755 70.7713 66.5789 67.6316V18.9474C66.5755 15.8078 65.3267 12.7977 63.1066 10.5776C60.8866 8.35756 57.8765 7.10879 54.7368 7.10531ZM21.8421 8.4211C21.8421 8.07213 21.9807 7.73745 22.2275 7.4907C22.4743 7.24394 22.8089 7.10531 23.1579 7.10531H27.2079C27.4524 7.10542 27.6921 7.0374 27.9001 6.90888C28.1082 6.78035 28.2762 6.59641 28.3855 6.37768C28.91 5.43213 29.6779 4.64415 30.6097 4.0955C31.5414 3.54685 32.603 3.25751 33.6842 3.25751C34.7655 3.25751 35.827 3.54685 36.7588 4.0955C37.6905 4.64415 38.4584 5.43213 38.9829 6.37768C39.0922 6.59641 39.2603 6.78035 39.4683 6.90888C39.6763 7.0374 39.916 7.10542 40.1605 7.10531H44.2105C44.5595 7.10531 44.8942 7.24394 45.1409 7.4907C45.3877 7.73745 45.5263 8.07213 45.5263 8.4211V15C45.5263 15.349 45.3877 15.6837 45.1409 15.9305C44.8942 16.1772 44.5595 16.3158 44.2105 16.3158H23.1579C22.8089 16.3158 22.4743 16.1772 22.2275 15.9305C21.9807 15.6837 21.8421 15.349 21.8421 15V8.4211ZM23.1579 18.9474H44.2105C45.2574 18.9474 46.2615 18.5315 47.0017 17.7913C47.742 17.051 48.1579 16.047 48.1579 15H54.7368C55.7838 15 56.7878 15.4159 57.5281 16.1562C58.2683 16.8965 58.6842 17.9005 58.6842 18.9474V67.6316C58.6842 68.6786 58.2683 69.6826 57.5281 70.4229C56.7878 71.1631 55.7838 71.579 54.7368 71.579H12.6316C11.5847 71.579 10.5807 71.1631 9.84038 70.4229C9.10011 69.6826 8.68423 68.6786 8.68423 67.6316V18.9474C8.68423 17.9005 9.10011 16.8965 9.84038 16.1562C10.5807 15.4159 11.5847 15 12.6316 15H19.2105C19.2105 16.047 19.6264 17.051 20.3667 17.7913C21.107 18.5315 22.111 18.9474 23.1579 18.9474ZM63.9474 67.6316C63.9446 70.0736 62.9733 72.4147 61.2466 74.1414C59.5199 75.8681 57.1788 76.8394 54.7368 76.8422H12.6316C10.1897 76.8394 7.84855 75.8681 6.12185 74.1414C4.39514 72.4147 3.42385 70.0736 3.42107 67.6316V18.9474C3.42385 16.5055 4.39514 14.1644 6.12185 12.4377C7.84855 10.711 10.1897 9.73968 12.6316 9.73689H19.2105V12.3685H12.6316C10.8874 12.3706 9.21522 13.0644 7.98188 14.2977C6.74854 15.531 6.05474 17.2032 6.05265 18.9474V67.6316C6.05474 69.3758 6.74854 71.048 7.98188 72.2813C9.21522 73.5147 10.8874 74.2085 12.6316 74.2106H54.7368C56.4811 74.2085 58.1532 73.5147 59.3866 72.2813C60.6199 71.048 61.3137 69.3758 61.3158 67.6316V18.9474C61.3137 17.2032 60.6199 15.531 59.3866 14.2977C58.1532 13.0644 56.4811 12.3706 54.7368 12.3685H48.1579V9.73689H54.7368C57.1788 9.73968 59.5199 10.711 61.2466 12.4377C62.9733 14.1644 63.9446 16.5055 63.9474 18.9474V67.6316Z" fill="#DA8566"/>
<path d="M33.6842 8.42113C34.4109 8.42113 35 7.83203 35 7.10534C35 6.37865 34.4109 5.78955 33.6842 5.78955C32.9575 5.78955 32.3684 6.37865 32.3684 7.10534C32.3684 7.83203 32.9575 8.42113 33.6842 8.42113Z" fill="#DA8566"/>
<path d="M18.204 43.7276C19.3294 47.8785 21.8355 51.5221 25.3092 54.0579C26.3054 54.7677 27.4318 55.2739 28.624 55.5476C29.8162 55.8213 31.0506 55.8569 32.2566 55.6526C33.2548 55.443 34.2858 55.4457 35.2829 55.6605C37.7042 56.0624 40.1861 55.4864 42.1829 54.0592C45.6577 51.5205 48.1638 47.8736 49.2882 43.7197C50.6224 38.9829 49.7921 34.471 47.0105 31.3513C45.7788 29.9706 44.2042 28.9397 42.4461 28.3631C42.9884 27.3698 43.3934 26.3075 43.65 25.2053C43.735 24.8206 43.7253 24.421 43.6217 24.041C43.518 23.6609 43.3236 23.3117 43.0551 23.0234C42.7867 22.7351 42.4522 22.5164 42.0804 22.386C41.7087 22.2556 41.3108 22.2175 40.9211 22.275C38.8679 22.5358 36.9359 23.3915 35.3632 24.7368C35.1258 24.966 34.9022 25.209 34.6934 25.4645C34.3886 24.6577 33.9025 23.9318 33.2726 23.3427C32.6427 22.7537 31.8859 22.3172 31.0605 22.0671C30.8964 22.0125 30.7231 21.9908 30.5505 22.0031C30.378 22.0155 30.2096 22.0617 30.0549 22.1392C29.9002 22.2167 29.7623 22.3238 29.649 22.4546C29.5358 22.5854 29.4494 22.7372 29.3948 22.9013C29.3401 23.0655 29.3184 23.2388 29.3308 23.4113C29.3432 23.5839 29.3894 23.7523 29.4669 23.907C29.5443 24.0617 29.6515 24.1996 29.7823 24.3128C29.913 24.4261 30.0648 24.5125 30.229 24.5671C30.9777 24.8347 31.6132 25.3489 32.0311 26.0253C32.449 26.7017 32.6246 27.5001 32.529 28.2895C31.7022 28.245 30.88 28.1372 30.0698 27.9671C28.3148 27.6758 26.5147 27.8341 24.8376 28.427C23.1604 29.02 21.6608 30.0283 20.479 31.3579C17.6974 34.4737 16.8671 38.9789 18.204 43.7276ZM37.1513 26.6658C38.2429 25.7348 39.576 25.1321 40.9961 24.9276C40.7366 25.9811 40.2765 26.9747 39.6408 27.8539C38.414 27.827 37.1881 27.94 35.9869 28.1908C36.2931 27.6237 36.6874 27.109 37.1553 26.6658H37.1513ZM22.4434 33.1039C23.3215 32.1141 24.4343 31.3609 25.6796 30.9135C26.9248 30.4661 28.2625 30.3388 29.5697 30.5434C32.3059 31.1138 35.1299 31.1165 37.8671 30.5513C39.1802 30.3408 40.5251 30.4644 41.7779 30.9105C43.0307 31.3566 44.151 32.1109 45.0355 33.1039C47.2079 35.5381 47.8303 39.1487 46.7461 42.9974C45.7843 46.58 43.6304 49.7281 40.6395 51.9224C39.2312 52.9315 37.4823 53.3456 35.7711 53.075C34.4515 52.8024 33.0905 52.7992 31.7698 53.0658C30.9143 53.2088 30.039 53.1814 29.1943 52.9849C28.3495 52.7884 27.5519 52.4269 26.8474 51.921C23.8575 49.73 21.704 46.5851 20.7421 43.0053C19.6487 39.1487 20.2711 35.5381 22.4434 33.1039Z" fill="#DA8566"/>
<path d="M24.1948 37.675C24.3465 37.7578 24.5131 37.8098 24.685 37.8281C24.8569 37.8464 25.0308 37.8307 25.1966 37.7818C25.3624 37.733 25.517 37.6519 25.6514 37.5433C25.7859 37.4346 25.8977 37.3005 25.9803 37.1487C26.213 36.7102 26.5619 36.3441 26.9886 36.0905C27.4154 35.8369 27.9036 35.7054 28.4 35.7105C28.5728 35.7028 28.7424 35.661 28.899 35.5877C29.0557 35.5144 29.1964 35.411 29.3131 35.2833C29.4298 35.1556 29.5202 35.0062 29.5791 34.8436C29.638 34.681 29.6644 34.5083 29.6566 34.3355C29.6488 34.1628 29.6071 33.9932 29.5338 33.8365C29.4605 33.6799 29.357 33.5392 29.2293 33.4225C29.1017 33.3058 28.9523 33.2154 28.7896 33.1565C28.627 33.0975 28.4544 33.0712 28.2816 33.079C27.3337 33.0939 26.407 33.3618 25.5973 33.855C24.7876 34.3482 24.1245 35.0488 23.6763 35.8842C23.5925 36.0358 23.5393 36.2024 23.52 36.3745C23.5007 36.5466 23.5155 36.7209 23.5637 36.8873C23.6118 37.0537 23.6924 37.2089 23.8007 37.3441C23.909 37.4792 24.0429 37.5917 24.1948 37.675Z" fill="#DA8566"/>
<path d="M24.4737 42.6316C25.2004 42.6316 25.7895 42.0425 25.7895 41.3158C25.7895 40.5891 25.2004 40 24.4737 40C23.747 40 23.1579 40.5891 23.1579 41.3158C23.1579 42.0425 23.747 42.6316 24.4737 42.6316Z" fill="#DA8566"/>
<path d="M52.1053 65.0001H15.2632C14.9142 65.0001 14.5795 65.1387 14.3328 65.3855C14.086 65.6322 13.9474 65.9669 13.9474 66.3159C13.9474 66.6648 14.086 66.9995 14.3328 67.2463C14.5795 67.493 14.9142 67.6317 15.2632 67.6317H52.1053C52.4542 67.6317 52.7889 67.493 53.0357 67.2463C53.2824 66.9995 53.4211 66.6648 53.4211 66.3159C53.4211 65.9669 53.2824 65.6322 53.0357 65.3855C52.7889 65.1387 52.4542 65.0001 52.1053 65.0001ZM13.9474 59.7369C13.9474 60.0859 14.086 60.4206 14.3328 60.6673C14.5795 60.9141 14.9142 61.0527 15.2632 61.0527H52.1053C52.4542 61.0527 52.7889 60.9141 53.0357 60.6673C53.2824 60.4206 53.4211 60.0859 53.4211 59.7369C53.4211 59.388 53.2824 59.0533 53.0357 58.8065C52.7889 58.5598 52.4542 58.4211 52.1053 58.4211H15.2632C14.9142 58.4211 14.5795 58.5598 14.3328 58.8065C14.086 59.0533 13.9474 59.388 13.9474 59.7369Z" fill="#DA8566"/>
</svg>
