<svg width="83" height="80" viewBox="0 0 83 80" fill="none" xmlns="http://www.w3.org/2000/svg">
<rect width="81.9444" height="80" transform="translate(0.5)" fill="#111A31"/>
<path fill-rule="evenodd" clip-rule="evenodd" d="M35.3316 20.049C34.4712 20.1085 32.9364 20.4158 32.0547 20.7051C27.5169 22.194 24.7539 25.8214 23.8059 31.5348C23.5529 33.0593 23.4691 34.4117 23.5098 36.3139C23.5414 37.7924 23.5816 38.2646 23.751 39.1474C24.1629 41.2942 24.7363 42.9388 25.8478 45.1617C27.1651 47.7959 28.8173 50.1525 31.6522 53.4408C32.3036 54.1964 33.2288 55.2935 33.7081 55.8788C34.7322 57.1294 35.3632 57.7243 36.4096 58.4256C38.0924 59.5534 40.0148 60.0963 41.9362 59.986C44.7031 59.8273 46.7208 58.3833 47.2863 56.1569C47.4639 55.4583 47.5129 54.6169 47.3895 54.3847C47.2588 54.1387 46.9062 53.9655 46.6614 54.0269C46.3121 54.1146 46.1818 54.3481 46.1235 54.991C45.9215 57.2203 44.4199 58.4985 41.819 58.6548C39.3122 58.8056 36.8448 57.5981 34.9629 55.2997C34.6068 54.8647 33.6967 53.7862 32.9403 52.9031C29.2903 48.641 27.4633 45.8787 26.1771 42.6779C25.5071 41.0103 25.078 39.3614 24.8922 37.7393C24.7723 36.6925 24.8407 33.6486 25.0119 32.4214C25.8286 26.5646 28.54 22.9799 33.0482 21.7963C34.4157 21.4373 35.0343 21.3661 36.7775 21.3671C38.1223 21.3679 38.5218 21.3963 39.2632 21.5438C42.6103 22.2096 44.8739 24.1334 46.3218 27.5428C46.9743 29.0793 47.2738 30.4024 47.4248 32.4164C47.5067 33.5071 47.5341 33.6493 47.6927 33.8079C48.0404 34.1557 48.6605 33.9617 48.7849 33.4662C48.8587 33.1721 48.6824 31.1512 48.4979 30.1754C48.0904 28.0214 47.2645 26.0318 46.0883 24.3707C45.6056 23.6892 44.5273 22.5763 43.8957 22.1081C41.7016 20.4817 38.8802 19.8032 35.3316 20.049ZM34.9798 23.3958C31.2334 23.9833 28.3589 26.794 26.9051 31.2913C26.4452 32.7141 26.1476 34.4253 26.1476 35.647C26.1476 36.1919 26.1685 36.2792 26.3395 36.4502C26.4673 36.5781 26.6173 36.6412 26.7889 36.6396C27.2821 36.6348 27.4757 36.335 27.4777 35.5725C27.4797 34.8547 27.6614 33.6217 27.9098 32.6412C28.4689 30.434 29.4621 28.5321 30.7876 27.1302C31.8902 25.9641 33.0167 25.2685 34.4422 24.8733C35.0591 24.7023 35.392 24.6638 36.5431 24.6298C37.7258 24.595 38.0166 24.6114 38.6925 24.7511C40.1293 25.048 41.1868 25.72 41.8838 26.7788C42.7767 28.1355 43.0616 29.9819 42.5492 31.0926C41.9032 32.4929 40.0413 33.5719 36.682 34.4926C34.7448 35.0237 33.9255 35.4926 33.3391 36.4065C33.0626 36.8374 32.7913 37.6185 32.7913 37.9838C32.7913 38.2843 33.1665 38.6743 33.4557 38.6743C33.7682 38.6743 34.0864 38.3113 34.1509 37.8812C34.1806 37.6837 34.3051 37.3639 34.4278 37.1705C34.8359 36.5269 35.3901 36.2198 36.811 35.8501C41.1289 34.7267 43.4353 33.1594 44.0083 30.9595C44.3486 29.6532 43.9978 27.6845 43.1786 26.3028C42.2832 24.7927 40.8551 23.8333 38.9147 23.4381C37.9744 23.2466 36.0622 23.2261 34.9798 23.3958ZM56.2788 34.2208C54.9892 34.4747 53.8558 34.7016 53.7603 34.7252C53.481 34.7942 53.2698 35.0781 53.2684 35.3867C53.2672 35.6389 53.3457 35.7406 54.1012 36.4671C54.56 36.9082 54.921 37.2835 54.9034 37.301C54.8858 37.3186 54.1154 37.478 53.1912 37.6554C51.0612 38.0641 51.015 38.079 50.8789 38.4049C50.6936 38.8485 50.9896 39.2996 51.466 39.2994C51.831 39.2992 56.497 38.3968 56.7031 38.2865C56.905 38.1784 57.0214 37.9606 57.0214 37.6907C57.0214 37.526 56.8348 37.2892 56.188 36.6328C55.6435 36.0803 55.3929 35.7748 55.465 35.7516C55.5257 35.7321 56.3656 35.5666 57.3314 35.3841C59.2858 35.0144 59.4444 34.9426 59.4444 34.4267C59.4444 34.0723 59.2368 33.8312 58.8972 33.7914C58.7468 33.7738 57.5685 33.967 56.2788 34.2208ZM30.5487 38.048C30.4545 38.0869 30.3163 38.212 30.2416 38.3261C30.1206 38.5107 30.1164 38.5859 30.2032 39.0142C30.3538 39.7568 30.7934 41.0133 31.155 41.7344C31.6433 42.7081 32.0903 43.3618 32.7273 44.0336C34.2444 45.634 36.0739 46.4771 38.3906 46.6435C39.0073 46.6878 39.4311 46.758 39.6021 46.8442C40.0034 47.0464 40.4135 47.4716 40.9977 48.2912C42.0893 49.8227 42.8096 50.175 44.3592 49.9351C45.4156 49.7715 46.1472 49.3104 46.527 48.5687C46.8925 47.8549 46.8514 46.7297 46.4237 45.7412C46.4034 45.6946 46.5374 45.5891 46.7213 45.5067C47.2574 45.2668 48.0599 44.4211 48.3747 43.7643C49.7621 40.8693 47.4234 37.6146 44.2674 38.0484C43.5832 38.1425 42.6017 38.5982 42.1316 39.0402C41.8618 39.2939 41.7235 39.3537 41.1218 39.4769C40.1139 39.6833 39.0497 40.2049 38.3994 40.8112C38.114 41.0773 38.104 41.4929 38.3763 41.7652C38.6645 42.0534 38.9882 42.0193 39.4669 41.6502C39.8287 41.3712 40.8392 40.834 40.8958 40.8906C40.9087 40.9034 40.8872 41.1686 40.8481 41.4799C40.5771 43.6381 41.9811 45.5368 44.1523 45.9485C44.3638 45.9886 44.6544 46.0214 44.7982 46.0214C45.0269 46.0214 45.0806 46.0629 45.2291 46.3536C45.4654 46.8164 45.5107 47.6104 45.3216 47.9755C45.1003 48.4026 44.5576 48.6344 43.7714 48.6374C43.294 48.6393 43.0901 48.6058 42.9265 48.499C42.8079 48.4215 42.4101 47.9516 42.0425 47.4549C41.6749 46.9581 41.2186 46.4026 41.0284 46.2204C40.4142 45.6319 39.5337 45.318 38.4971 45.318C37.3137 45.318 35.8888 44.8428 34.7453 44.0669C34.2264 43.7148 33.3264 42.7809 32.9381 42.1914C32.3523 41.3023 31.9054 40.2663 31.5744 39.0295C31.4714 38.6446 31.3249 38.2687 31.249 38.1942C31.0724 38.0212 30.7679 37.9576 30.5487 38.048ZM45.9796 39.621C46.4809 39.8636 46.9869 40.3893 47.2357 40.9256C47.4037 41.288 47.4426 41.4875 47.4444 41.9978C47.4463 42.55 47.4162 42.6864 47.1918 43.1422C46.1395 45.2797 43.1285 45.117 42.2893 42.8773C42.0962 42.3619 42.1515 41.3536 42.3999 40.8628C43.0681 39.5422 44.6695 38.9868 45.9796 39.621ZM27.8281 40.0933C27.3847 40.3358 27.3801 40.5652 27.7947 41.7725C28.4291 43.6199 29.5679 45.6095 30.9016 47.2004C31.9891 48.4978 33.7135 50.0077 34.1078 50.0077C34.5346 50.0077 34.8767 49.5822 34.775 49.1775C34.7464 49.0635 34.4485 48.7516 34.0521 48.4208C31.7003 46.4585 29.9507 43.9508 29.0093 41.1935C28.6321 40.0885 28.3378 39.8144 27.8281 40.0933ZM51.1756 42.7423C50.9617 42.8281 50.7783 43.2238 50.8291 43.4896C50.8994 43.8575 51.1571 43.9563 52.9366 44.297C53.872 44.4763 54.7034 44.6424 54.7841 44.6662C54.9042 44.7017 54.7805 44.8601 54.1001 45.5426C53.3939 46.2511 53.2696 46.4129 53.2696 46.6241C53.2696 46.7712 53.3413 46.9527 53.4455 47.0694C53.6044 47.2474 53.857 47.3116 56.0772 47.7381C57.4279 47.9977 58.6616 48.21 58.8188 48.21C59.1913 48.21 59.4444 47.9527 59.4444 47.5737C59.4444 47.0643 59.2862 46.994 57.2475 46.5978C56.2418 46.4024 55.4032 46.2267 55.3837 46.2074C55.3643 46.1881 55.7254 45.813 56.1861 45.3739C56.9114 44.6825 57.0235 44.542 57.0225 44.3258C57.0218 44.1789 56.9469 43.9896 56.8407 43.8661C56.6721 43.6702 56.4881 43.6229 54.0855 43.1591C52.6696 42.8858 51.4758 42.6639 51.4328 42.6663C51.3898 42.6686 51.2741 42.7028 51.1756 42.7423Z" fill="white"/>
</svg>
