<svg width="24" height="25" viewBox="0 0 24 25" fill="none" xmlns="http://www.w3.org/2000/svg">
<path fill-rule="evenodd" clip-rule="evenodd" d="M2 6.92041C2 5.85954 2.42143 4.84213 3.17157 4.09198C3.92172 3.34184 4.93913 2.92041 6 2.92041H18C19.0609 2.92041 20.0783 3.34184 20.8284 4.09198C21.5786 4.84213 22 5.85954 22 6.92041V18.9204C22 19.9813 21.5786 20.9987 20.8284 21.7488C20.0783 22.499 19.0609 22.9204 18 22.9204H6C4.93913 22.9204 3.92172 22.499 3.17157 21.7488C2.42143 20.9987 2 19.9813 2 18.9204V6.92041ZM6 4.92041C5.46957 4.92041 4.96086 5.13112 4.58579 5.5062C4.21071 5.88127 4 6.38998 4 6.92041V18.9204C4 19.4508 4.21071 19.9596 4.58579 20.3346C4.96086 20.7097 5.46957 20.9204 6 20.9204H12V13.9204H11C10.7348 13.9204 10.4804 13.8151 10.2929 13.6275C10.1054 13.44 10 13.1856 10 12.9204C10 12.6552 10.1054 12.4008 10.2929 12.2133C10.4804 12.0258 10.7348 11.9204 11 11.9204H12V10.4204C12 9.49215 12.3687 8.60191 13.0251 7.94554C13.6815 7.28916 14.5717 6.92041 15.5 6.92041H16.1C16.3652 6.92041 16.6196 7.02577 16.8071 7.2133C16.9946 7.40084 17.1 7.65519 17.1 7.92041C17.1 8.18563 16.9946 8.43998 16.8071 8.62752C16.6196 8.81505 16.3652 8.92041 16.1 8.92041H15.5C15.303 8.92041 15.108 8.95921 14.926 9.03459C14.744 9.10997 14.5786 9.22046 14.4393 9.35975C14.3001 9.49904 14.1896 9.6644 14.1142 9.84639C14.0388 10.0284 14 10.2234 14 10.4204V11.9204H16.1C16.3652 11.9204 16.6196 12.0258 16.8071 12.2133C16.9946 12.4008 17.1 12.6552 17.1 12.9204C17.1 13.1856 16.9946 13.44 16.8071 13.6275C16.6196 13.8151 16.3652 13.9204 16.1 13.9204H14V20.9204H18C18.5304 20.9204 19.0391 20.7097 19.4142 20.3346C19.7893 19.9596 20 19.4508 20 18.9204V6.92041C20 6.38998 19.7893 5.88127 19.4142 5.5062C19.0391 5.13112 18.5304 4.92041 18 4.92041H6Z" fill="white"/>
</svg>
