<svg width="24" height="25" viewBox="0 0 24 25" fill="none" xmlns="http://www.w3.org/2000/svg">
<path fill-rule="evenodd" clip-rule="evenodd" d="M2 6.92041C2 5.85954 2.42143 4.84213 3.17157 4.09198C3.92172 3.34184 4.93913 2.92041 6 2.92041H18C19.0609 2.92041 20.0783 3.34184 20.8284 4.09198C21.5786 4.84213 22 5.85954 22 6.92041V18.9204C22 19.9813 21.5786 20.9987 20.8284 21.7488C20.0783 22.499 19.0609 22.9204 18 22.9204H6C4.93913 22.9204 3.92172 22.499 3.17157 21.7488C2.42143 20.9987 2 19.9813 2 18.9204V6.92041ZM6 4.92041C5.46957 4.92041 4.96086 5.13112 4.58579 5.5062C4.21071 5.88127 4 6.38998 4 6.92041V18.9204C4 19.4508 4.21071 19.9596 4.58579 20.3346C4.96086 20.7097 5.46957 20.9204 6 20.9204H18C18.5304 20.9204 19.0391 20.7097 19.4142 20.3346C19.7893 19.9596 20 19.4508 20 18.9204V6.92041C20 6.38998 19.7893 5.88127 19.4142 5.5062C19.0391 5.13112 18.5304 4.92041 18 4.92041H6ZM12 9.92041C11.2044 9.92041 10.4413 10.2365 9.87868 10.7991C9.31607 11.3617 9 12.1248 9 12.9204C9 13.7161 9.31607 14.4791 9.87868 15.0417C10.4413 15.6043 11.2044 15.9204 12 15.9204C12.7956 15.9204 13.5587 15.6043 14.1213 15.0417C14.6839 14.4791 15 13.7161 15 12.9204C15 12.1248 14.6839 11.3617 14.1213 10.7991C13.5587 10.2365 12.7956 9.92041 12 9.92041ZM7 12.9204C7 11.5943 7.52678 10.3226 8.46447 9.38488C9.40215 8.44719 10.6739 7.92041 12 7.92041C13.3261 7.92041 14.5979 8.44719 15.5355 9.38488C16.4732 10.3226 17 11.5943 17 12.9204C17 14.2465 16.4732 15.5183 15.5355 16.4559C14.5979 17.3936 13.3261 17.9204 12 17.9204C10.6739 17.9204 9.40215 17.3936 8.46447 16.4559C7.52678 15.5183 7 14.2465 7 12.9204ZM17.5 8.92041C17.8978 8.92041 18.2794 8.76237 18.5607 8.48107C18.842 8.19977 19 7.81823 19 7.42041C19 7.02259 18.842 6.64105 18.5607 6.35975C18.2794 6.07845 17.8978 5.92041 17.5 5.92041C17.1022 5.92041 16.7206 6.07845 16.4393 6.35975C16.158 6.64105 16 7.02259 16 7.42041C16 7.81823 16.158 8.19977 16.4393 8.48107C16.7206 8.76237 17.1022 8.92041 17.5 8.92041Z" fill="white"/>
</svg>
