<svg width="137" height="40" viewBox="0 0 137 40" fill="none" xmlns="http://www.w3.org/2000/svg">
<rect width="136.2" height="40" fill="white"/>
<g clip-path="url(#clip0_2_78)">
<path d="M28.4 8.3332C28.4 6.1064 28.4 3.8796 28.4 1.6528C28.4 0.769195 27.8012 0 26.9176 0H12.5176C11.634 0 10.8 0.769195 10.8 1.6528V11.2H1.646C0.762402 11.2 0 11.9236 0 12.8072V27.2072C0 28.0908 0.762402 28.8 1.646 28.8C4.0308 28.7776 6.4156 28.7556 8.8 28.7332C8.7164 27.5772 8.30561 20.1344 14.0836 14.1436C19.832 8.1832 27.2352 8.296 28.4 8.3332Z" fill="#DA8566"/>
<path d="M37.534 11.2H28.5332H27.2004C18.364 11.2 11.2 18.5624 11.2 27.3992V38.5992C11.2 39.4828 11.9168 40 12.8008 40H26.9336C27.8172 40 28.4004 39.4828 28.4004 38.5992V32H37.5344C38.418 32 39.2004 31.4828 39.2004 30.5992V12.9992C39.2 12.1152 38.4176 11.2 37.534 11.2Z" fill="#474D74"/>
<path d="M28.4001 11.2001C27.3509 11.1441 21.2249 10.9177 16.2545 15.6429C10.7753 20.8513 11.1801 27.8181 11.2501 28.7501C16.9669 28.7669 28.4001 11.2001 28.4001 11.2001Z" fill="#3D436D"/>
<path d="M11.2156 28.7305C12.2648 28.7865 18.3908 29.0129 23.3612 24.2877C28.8404 19.0793 28.4356 12.1125 28.3656 11.1805C22.6492 11.1641 11.2156 28.7305 11.2156 28.7305Z" fill="#3D436D"/>
</g>
<path d="M51.9348 28H48.9113V10.9375H51.9348V28ZM55.2863 19.1992L51.3254 23.3945L50.7981 20.3711L53.5871 16.8555L58.4856 10.9375H62.177L55.2863 19.1992ZM53.3762 19.9727L55.4621 17.9102L62.4934 28H58.8957L53.3762 19.9727ZM66.8996 28H63.9934V15.3203H66.8996V28ZM63.8059 12.0039C63.8059 11.5586 63.9504 11.1914 64.2395 10.9023C64.5285 10.6055 64.9309 10.457 65.4465 10.457C65.9621 10.457 66.3684 10.6055 66.6652 10.9023C66.9621 11.1914 67.1106 11.5586 67.1106 12.0039C67.1106 12.4414 66.9621 12.8086 66.6652 13.1055C66.3684 13.3945 65.9621 13.5391 65.4465 13.5391C64.9309 13.5391 64.5285 13.3945 64.2395 13.1055C63.9504 12.8086 63.8059 12.4414 63.8059 12.0039ZM77.1535 15.3203H80.1652L75.7824 28H73.9074L74.0949 25.7031L77.1535 15.3203ZM74.9152 25.7383L75.0559 28H73.1926L68.7746 15.3203H71.7981L74.9152 25.7383ZM84.9934 28H82.0871V15.3203H84.9934V28ZM81.8996 12.0039C81.8996 11.5586 82.0442 11.1914 82.3332 10.9023C82.6223 10.6055 83.0246 10.457 83.5402 10.457C84.0559 10.457 84.4621 10.6055 84.759 10.9023C85.0559 11.1914 85.2043 11.5586 85.2043 12.0039C85.2043 12.4414 85.0559 12.8086 84.759 13.1055C84.4621 13.3945 84.0559 13.5391 83.5402 13.5391C83.0246 13.5391 82.6223 13.3945 82.3332 13.1055C82.0442 12.8086 81.8996 12.4414 81.8996 12.0039ZM100.861 22.6797C100.743 23.8281 100.427 24.8203 99.9113 25.6562C99.4035 26.4844 98.7004 27.1211 97.802 27.5664C96.9113 28.0117 95.8371 28.2344 94.5793 28.2344C93.2902 28.2344 92.1652 27.9141 91.2043 27.2734C90.2434 26.6328 89.4973 25.7344 88.966 24.5781C88.4348 23.4219 88.1692 22.0781 88.1692 20.5469V18.4023C88.1692 16.8633 88.4348 15.5156 88.966 14.3594C89.4973 13.2031 90.2512 12.3047 91.2277 11.6641C92.2043 11.0234 93.3567 10.7031 94.6848 10.7031C95.9035 10.7031 96.9504 10.9219 97.8254 11.3594C98.7082 11.7969 99.4035 12.4336 99.9113 13.2695C100.427 14.0977 100.743 15.0977 100.861 16.2695H99.4192C99.2473 14.8945 98.7824 13.8281 98.0246 13.0703C97.2668 12.3125 96.1535 11.9336 94.6848 11.9336C93.6301 11.9336 92.7238 12.2031 91.966 12.7422C91.216 13.2734 90.634 14.0234 90.2199 14.9922C89.8137 15.9531 89.6106 17.082 89.6106 18.3789V20.5469C89.6106 21.7891 89.8059 22.8984 90.1965 23.875C90.5871 24.8516 91.1496 25.6211 91.884 26.1836C92.6262 26.7383 93.5246 27.0156 94.5793 27.0156C95.5871 27.0156 96.427 26.8555 97.0988 26.5352C97.7707 26.207 98.2942 25.7227 98.6692 25.082C99.0442 24.4336 99.2942 23.6328 99.4192 22.6797H100.861ZM111.759 19.1875C111.759 18.2812 111.478 17.5664 110.915 17.043C110.353 16.5195 109.544 16.2578 108.489 16.2578C107.833 16.2578 107.247 16.375 106.732 16.6094C106.224 16.8359 105.821 17.1445 105.525 17.5352C105.236 17.918 105.091 18.3477 105.091 18.8242L103.685 18.8125C103.685 18.1719 103.888 17.5703 104.294 17.0078C104.708 16.4375 105.279 15.9766 106.005 15.625C106.739 15.2656 107.587 15.0859 108.548 15.0859C109.454 15.0859 110.251 15.2383 110.939 15.543C111.634 15.8477 112.177 16.3047 112.568 16.9141C112.966 17.5234 113.165 18.2891 113.165 19.2109V25.3398C113.165 25.7773 113.196 26.2305 113.259 26.6992C113.329 27.168 113.427 27.5547 113.552 27.8594V28H112.052C111.958 27.7188 111.884 27.3672 111.829 26.9453C111.782 26.5156 111.759 26.1094 111.759 25.7266V19.1875ZM112.111 21.6953H109.357C107.927 21.6953 106.806 21.9492 105.993 22.457C105.189 22.957 104.786 23.6406 104.786 24.5078C104.786 25.1953 105.04 25.7812 105.548 26.2656C106.064 26.75 106.759 26.9922 107.634 26.9922C108.415 26.9922 109.103 26.8516 109.696 26.5703C110.298 26.2812 110.79 25.8984 111.173 25.4219C111.564 24.9453 111.829 24.4297 111.97 23.875L112.579 24.6836C112.478 25.0742 112.29 25.4766 112.017 25.8906C111.751 26.2969 111.404 26.6797 110.974 27.0391C110.544 27.3906 110.036 27.6797 109.45 27.9062C108.872 28.125 108.216 28.2344 107.482 28.2344C106.654 28.2344 105.931 28.0781 105.314 27.7656C104.704 27.4531 104.228 27.0273 103.884 26.4883C103.548 25.9414 103.38 25.3242 103.38 24.6367C103.38 23.3867 103.896 22.4062 104.927 21.6953C105.966 20.9766 107.38 20.6172 109.169 20.6172H112.087L112.111 21.6953ZM118.31 28H116.904V15.3203H118.275L118.31 17.418V28ZM122.763 16.5039C122.607 16.4805 122.454 16.4609 122.306 16.4453C122.157 16.4297 121.997 16.4219 121.825 16.4219C121.021 16.4219 120.345 16.6172 119.798 17.0078C119.251 17.3984 118.833 17.9219 118.544 18.5781C118.263 19.2344 118.111 19.9688 118.087 20.7812L117.56 20.9688C117.56 19.8672 117.712 18.875 118.017 17.9922C118.329 17.1016 118.802 16.3945 119.435 15.8711C120.075 15.3477 120.888 15.0859 121.872 15.0859C122.052 15.0859 122.228 15.1016 122.4 15.1328C122.579 15.1562 122.712 15.1875 122.798 15.2266L122.763 16.5039ZM129.9 28.2344C128.798 28.2344 127.818 27.9688 126.958 27.4375C126.107 26.8984 125.435 26.1641 124.943 25.2344C124.458 24.2969 124.216 23.2227 124.216 22.0117V21.5078C124.216 20.2031 124.466 19.0703 124.966 18.1094C125.474 17.1484 126.138 16.4062 126.958 15.8828C127.786 15.3516 128.681 15.0859 129.642 15.0859C130.72 15.0859 131.634 15.3359 132.384 15.8359C133.134 16.3281 133.7 17.0117 134.083 17.8867C134.474 18.7617 134.669 19.7617 134.669 20.8867V21.7422H125.071V20.5586H133.263V20.3945C133.247 19.6836 133.103 19.0156 132.829 18.3906C132.564 17.7656 132.165 17.2578 131.634 16.8672C131.103 16.4688 130.439 16.2695 129.642 16.2695C128.853 16.2695 128.154 16.4922 127.544 16.9375C126.935 17.3828 126.462 18 126.126 18.7891C125.79 19.5703 125.622 20.4766 125.622 21.5078V22.0117C125.622 22.9492 125.802 23.7969 126.161 24.5547C126.529 25.3125 127.04 25.918 127.696 26.3711C128.353 26.8242 129.107 27.0508 129.958 27.0508C130.708 27.0508 131.372 26.9141 131.95 26.6406C132.529 26.3594 133.048 25.918 133.509 25.3164L134.4 25.9844C133.986 26.6016 133.415 27.1328 132.689 27.5781C131.97 28.0156 131.04 28.2344 129.9 28.2344Z" fill="#111A31"/>
<defs>
<clipPath id="clip0_2_78">
<rect width="39.2004" height="40" fill="white"/>
</clipPath>
</defs>
</svg>
