<svg width="80" height="80" viewBox="0 0 80 80" fill="none" xmlns="http://www.w3.org/2000/svg">
<path d="M69.7179 63.705L66.3397 60.2949L69.9551 23.9744H38.0385L37.5834 20.1924H53.8974V5.64111H57.6794V20.1924H74.2627L69.7179 63.705ZM68.4551 75.5899L2.51929 9.65378L5.2372 6.93595L71.173 72.8717L68.4551 75.5899ZM5.73737 64.2755V60.4935H53.2628V64.2755H5.73737ZM7.8207 74.9999C7.23948 74.9999 6.74698 74.7926 6.3432 74.378C5.93931 73.9635 5.73737 73.4764 5.73737 72.9165V71.2179H53.2628V72.9165C53.2628 73.4764 53.0662 73.9635 52.673 74.378C52.2799 74.7926 51.7821 74.9999 51.1795 74.9999H7.8207ZM36.218 37.9488V41.7308C35.171 41.5299 34.093 41.3932 32.984 41.3205C31.8751 41.2479 30.7138 41.2115 29.5001 41.2115C23.8035 41.2115 19.3943 42.0726 16.2725 43.7949C13.1508 45.5171 11.1369 47.6773 10.2309 50.2756H48.5769L52.3589 54.0576H5.7887C5.7887 49.7372 7.6359 45.8857 11.3303 42.5033C15.0247 39.1208 21.0813 37.4296 29.5001 37.4296C30.6924 37.4296 31.8484 37.4745 32.968 37.5642C34.0877 37.6539 35.171 37.7821 36.218 37.9488Z" fill="#DA8566"/>
</svg>
