<svg width="80" height="80" viewBox="0 0 80 80" fill="none" xmlns="http://www.w3.org/2000/svg">
<g clip-path="url(#clip0_2_951)">
<path d="M11.4875 80.1485H68.5119C70.6106 80.1485 72.3342 78.545 72.3342 76.5543L72.334 9.7552C72.334 7.76427 70.6104 6.16079 68.5119 6.16079H11.4875C9.38899 6.16079 7.66555 7.7641 7.66555 9.7552V76.5543C7.66555 78.545 9.38918 80.1485 11.4875 80.1485ZM9.52813 9.75518C9.52813 8.81594 10.3908 8.02317 11.4875 8.02317H68.5119C69.609 8.02317 70.4716 8.81596 70.4716 9.75518L70.4718 76.5542C70.4718 77.4934 69.609 78.2859 68.5119 78.2859H11.4875C10.3907 78.2859 9.52813 77.4934 9.52813 76.5542V9.75518Z" fill="#DA8566" stroke="#DA8566" stroke-width="0.3"/>
<path d="M24.0834 16.914H55.0561C55.5704 16.914 55.9873 16.4971 55.9873 15.9828V7.09223C55.9873 6.57791 55.5704 6.16104 55.0561 6.16104C54.5416 6.16104 54.1249 6.57793 54.1249 7.09223V15.0514H25.0146V7.09223C25.0146 6.57791 24.5978 6.16104 24.0834 6.16104C23.5689 6.16104 23.1522 6.57793 23.1522 7.09223V15.9828C23.1522 16.4971 23.5689 16.914 24.0834 16.914Z" fill="#DA8566" stroke="#DA8566" stroke-width="0.3"/>
<path d="M19.3587 50.9919L19.3588 50.992L21.5683 53.2013L26.5022 48.2674L26.5022 48.2673C26.8659 47.9039 27.4554 47.9039 27.819 48.2675C28.1829 48.6312 28.1829 49.2207 27.819 49.5844L19.3587 50.9919ZM19.3587 50.9919C18.995 50.6288 18.4055 50.6285 18.0418 50.9922C17.6782 51.3558 17.6782 51.9456 18.0418 52.3092L20.9097 55.1769C21.0916 55.3588 21.3301 55.4497 21.5683 55.4497C21.8063 55.4497 22.0448 55.3588 22.2267 55.1767C22.2267 55.1767 22.2267 55.1767 22.2267 55.1767L27.819 49.5844L19.3587 50.9919ZM18.0418 60.6261L18.0418 60.6261C17.6782 60.2622 17.6782 59.6727 18.0418 59.3089L18.0419 59.3088C18.4055 58.9456 18.9949 58.9457 19.3587 59.3088L19.3588 59.3089L21.5683 61.5183L26.5022 56.5844L26.5022 56.5844C26.8659 56.221 27.4554 56.221 27.819 56.5844C28.1829 56.948 28.1829 57.5378 27.819 57.9014L18.0418 60.6261ZM18.0418 60.6261L20.9096 63.4937C21.0914 63.6757 21.3301 63.7666 21.5683 63.7666C21.8062 63.7666 22.0449 63.6757 22.2267 63.4938C22.2267 63.4938 22.2267 63.4938 22.2267 63.4937L27.819 57.9015L18.0418 60.6261ZM46.3818 2.22712V6.16097H32.7582V2.22693C32.7582 1.94431 32.9884 1.71404 33.2709 1.71404L45.8687 1.71385C46.1514 1.71385 46.3818 1.94431 46.3818 2.22712ZM19.3588 42.6751L19.3587 42.675C18.995 42.312 18.4055 42.3116 18.0418 42.6753L18.1479 42.7814L18.0418 42.6753C17.6782 43.039 17.6782 43.6287 18.0418 43.9923L20.9097 46.86C21.0916 47.0419 21.3301 47.1328 21.5683 47.1328C21.8063 47.1328 22.0448 47.0419 22.2266 46.8603L22.2267 46.8602L27.819 41.2681C28.1829 40.9044 28.1829 40.3146 27.819 39.951C27.4556 39.5874 26.8659 39.5872 26.5022 39.951C26.5022 39.951 26.5022 39.9511 26.5022 39.9511L21.5683 44.8846L19.3588 42.6751ZM31.8268 8.02336H47.3131C47.8272 8.02336 48.2443 7.60672 48.2443 7.09234V2.22729C48.2443 0.917034 47.1788 -0.148535 45.8687 -0.148535L33.2709 -0.148351C31.961 -0.148351 30.8956 0.917042 30.8956 2.22712V7.09216C30.8956 7.60669 31.3125 8.02336 31.8268 8.02336ZM29.6758 36.0198H61.5091C62.0234 36.0198 62.4403 35.603 62.4403 35.0886C62.4403 34.5743 62.0234 34.1575 61.5091 34.1575H29.6758C29.1613 34.1575 28.7444 34.5743 28.7444 35.0886C28.7444 35.603 29.1613 36.0198 29.6758 36.0198ZM29.6758 44.3367H61.5091C62.0234 44.3367 62.4403 43.9198 62.4403 43.4055C62.4403 42.8912 62.0234 42.4743 61.5091 42.4743H29.6758C29.1613 42.4743 28.7444 42.8912 28.7444 43.4055C28.7444 43.9201 29.1613 44.3367 29.6758 44.3367ZM29.6758 52.6534H61.5091C62.0234 52.6534 62.4403 52.2365 62.4403 51.7221C62.4403 51.2077 62.0234 50.7909 61.5091 50.7909L29.6758 50.7911C29.1613 50.7911 28.7444 51.2077 28.7444 51.7222C28.7444 52.2366 29.1613 52.6534 29.6758 52.6534ZM29.6758 60.9705H61.5091C62.0234 60.9705 62.4403 60.5536 62.4403 60.0393C62.4403 59.5248 62.0234 59.1079 61.5091 59.1079H29.6758C29.1613 59.1079 28.7444 59.5248 28.7444 60.0393C28.7444 60.5536 29.1613 60.9705 29.6758 60.9705ZM20.7003 38.615C20.875 38.7897 21.1119 38.8878 21.3588 38.8878L21.9111 38.509L22.0172 38.615L22.0172 38.615L27.6093 33.0227C27.9732 32.6591 27.9732 32.0693 27.6093 31.7056C27.2457 31.342 26.656 31.342 26.2925 31.7057C26.2925 31.7057 26.2925 31.7057 26.2925 31.7057L21.3587 36.6396L19.1494 34.4302C19.1493 34.4302 19.1493 34.4302 19.1493 34.4301C18.786 34.0665 18.1962 34.0664 17.8325 34.4301C17.4686 34.7938 17.4686 35.3833 17.8325 35.747C17.8325 35.747 17.8325 35.747 17.8325 35.747L20.7003 38.615Z" fill="#DA8566" stroke="#DA8566" stroke-width="0.3"/>
</g>
<defs>
<clipPath id="clip0_2_951">
<rect width="80" height="80" fill="white"/>
</clipPath>
</defs>
</svg>
