<svg width="24" height="25" viewBox="0 0 24 25" fill="none" xmlns="http://www.w3.org/2000/svg">
<path fill-rule="evenodd" clip-rule="evenodd" d="M3.5 12.9204C3.50061 11.1119 4.07801 9.35078 5.14826 7.89299C6.21851 6.4352 7.72583 5.35676 9.45108 4.81445C11.1763 4.27213 13.0296 4.29421 14.7414 4.87749C16.4533 5.46076 17.9344 6.57481 18.9697 8.05769C20.0049 9.54057 20.5401 11.315 20.4977 13.123C20.4552 14.9309 19.8371 16.6782 18.7334 18.1109C17.6297 19.5435 16.0978 20.5867 14.3605 21.0889C12.6231 21.5912 10.7709 21.5262 9.073 20.9034C9.64991 19.357 10.2096 17.8043 10.752 16.2454C11.326 16.6554 12.067 16.9204 13 16.9204C14.935 16.9204 16.975 15.6454 17.48 13.1164C18.117 9.94141 15.574 6.92041 12 6.92041C10.497 6.92041 9.019 7.52441 7.913 8.48241C6.805 9.44341 6 10.8274 6 12.4204C6 13.1954 6.234 14.0584 6.791 14.6264C6.97976 14.8122 7.23394 14.9164 7.4988 14.9166C7.76365 14.9168 8.01798 14.8129 8.207 14.6274C8.39081 14.4437 8.4959 14.1957 8.50001 13.9359C8.50411 13.676 8.40692 13.4248 8.229 13.2354C7.443 12.2554 8.479 10.6394 9.223 9.99441C9.996 9.32441 11.017 8.92041 12 8.92041C14.427 8.92041 15.884 10.8994 15.52 12.7244C15.216 14.2384 14.064 14.9204 13 14.9204C12.182 14.9204 11.742 14.5754 11.46 14.1284C11.614 13.6444 11.745 13.2044 11.839 12.8464C12.031 12.1094 12.147 11.2204 11.484 10.6674C10.991 10.2574 10.409 10.3474 10.053 10.5264C9.39 10.8564 9 11.6304 9 12.4204C9 12.8614 9.069 13.5454 9.317 14.2524C8.6717 16.177 7.99226 18.09 7.279 19.9904C6.11564 19.2142 5.16198 18.1628 4.50273 16.9294C3.84347 15.696 3.49903 14.3189 3.5 12.9204ZM12 2.42041C6.201 2.42041 1.5 7.12141 1.5 12.9204C1.5 18.7194 6.201 23.4204 12 23.4204C17.799 23.4204 22.5 18.7194 22.5 12.9204C22.5 7.12141 17.799 2.42041 12 2.42041Z" fill="white"/>
</svg>
