<svg width="170" height="151" viewBox="0 0 170 151" fill="none" xmlns="http://www.w3.org/2000/svg">
<path fill-rule="evenodd" clip-rule="evenodd" d="M56.3079 1.10139C53.9308 1.6715 43.1236 7.28487 38.5213 10.3394C32.5583 14.2976 29.227 17.0141 24.1956 22.0208C7.9353 38.2023 1.78844 55.1745 0.2794 88.0544C0.0619706 92.7906 -0.0444167 105.981 0.0174209 120.485C0.114832 143.219 0.164036 145.017 0.719244 146.133C1.50385 147.709 3.08802 149.304 4.75897 150.199L6.10643 150.92H34.8642C58.3718 150.92 63.8574 150.837 64.9123 150.464C66.5553 149.884 68.6166 148.026 69.5472 146.286L70.2713 144.933L70.3617 116.521C70.4611 85.2783 70.5016 85.9825 68.4547 83.5107C67.9001 82.8412 66.6687 81.9058 65.7182 81.4318L63.9901 80.5703H50.2585H36.5265L36.5292 78.1588C36.5352 72.8315 37.8195 65.3272 39.6826 59.7334C43.8915 47.096 51.2512 39.122 65.1191 32.1728C67.8174 30.821 70.4295 29.2657 71.0236 28.658C72.5602 27.0853 73.2055 25.1515 73.036 22.6248C72.9123 20.7771 72.4336 19.5654 68.9537 12.2869C64.8635 3.73244 64.0725 2.57092 61.6516 1.56207C60.1542 0.938067 57.8259 0.737494 56.3079 1.10139ZM150.893 2.17144C128.523 11.9523 111.47 28.5765 103.905 47.9791C101.754 53.4957 99.8276 61.9031 98.7245 70.5916C97.3445 81.4604 97.2072 85.5497 97.2039 115.829C97.2005 143.744 97.2265 144.985 97.8312 146.204C98.6341 147.821 100.061 149.249 101.81 150.185L103.185 150.92H132.109C160.809 150.92 161.045 150.915 162.529 150.221C164.311 149.387 165.66 148.089 166.635 146.268C167.348 144.936 167.35 144.871 167.44 116.521C167.539 85.2783 167.58 85.9825 165.533 83.5107C164.979 82.8412 163.747 81.9058 162.797 81.4318L161.068 80.5703H147.171C133.624 80.5703 133.272 80.554 133.272 79.923C133.272 77.4483 134.123 70.094 134.794 66.7684C135.827 61.6507 136.92 58.347 139.088 53.7941C143.675 44.1613 150.664 37.6468 162.529 31.9453C168.653 29.0019 169.981 27.4459 169.999 23.1926C170.009 20.8979 169.954 20.7505 166.2 12.9565C164.105 8.60739 161.947 4.50912 161.403 3.84953C159.022 0.959688 155.097 0.333023 150.893 2.17144Z" fill="#353C50"/>
</svg>
