<svg width="100" height="17" viewBox="0 0 100 17" fill="none" xmlns="http://www.w3.org/2000/svg">
<path d="M14.1999 8.61628C14.8666 8.02897 14.4935 6.92874 13.607 6.86819L10.8225 6.67801C10.4339 6.65148 10.0961 6.40179 9.9568 6.03814L8.92963 3.35744C8.60154 2.50117 7.39013 2.50118 7.06204 3.35744L6.03485 6.03819C5.89552 6.40182 5.55777 6.65149 5.16927 6.67806L2.38836 6.86819C1.50227 6.92878 1.129 8.02828 1.79507 8.61581L3.99935 10.5601C4.27836 10.8063 4.39768 11.1869 4.30906 11.5483L3.59733 14.4504C3.38096 15.3327 4.35808 16.0231 5.11744 15.5245L7.44695 13.9948C7.78017 13.776 8.2115 13.776 8.54472 13.9948L10.8743 15.5245C11.6336 16.0231 12.6107 15.3327 12.3944 14.4504L11.6828 11.5487C11.5941 11.1871 11.7136 10.8062 11.993 10.5601L14.1999 8.61628Z" fill="#FF9737"/>
<path d="M35.1999 8.61628C35.8666 8.02897 35.4935 6.92874 34.607 6.86819L31.8225 6.67801C31.4339 6.65148 31.0961 6.40179 30.9568 6.03814L29.9296 3.35744C29.6015 2.50117 28.3901 2.50118 28.062 3.35744L27.0349 6.03819C26.8955 6.40182 26.5578 6.65149 26.1693 6.67806L23.3884 6.86819C22.5023 6.92878 22.129 8.02828 22.7951 8.61581L24.9993 10.5601C25.2784 10.8063 25.3977 11.1869 25.3091 11.5483L24.5973 14.4504C24.381 15.3327 25.3581 16.0231 26.1174 15.5245L28.447 13.9948C28.7802 13.776 29.2115 13.776 29.5447 13.9948L31.8743 15.5245C32.6336 16.0231 33.6107 15.3327 33.3944 14.4504L32.6828 11.5487C32.5941 11.1871 32.7136 10.8062 32.993 10.5601L35.1999 8.61628Z" fill="#FF9737"/>
<path d="M56.1999 8.61628C56.8666 8.02897 56.4935 6.92874 55.607 6.86819L52.8225 6.67801C52.4339 6.65148 52.0961 6.40179 51.9568 6.03814L50.9296 3.35744C50.6015 2.50117 49.3901 2.50118 49.062 3.35744L48.0349 6.03819C47.8955 6.40182 47.5578 6.65149 47.1693 6.67806L44.3884 6.86819C43.5023 6.92878 43.129 8.02828 43.7951 8.61581L45.9993 10.5601C46.2784 10.8063 46.3977 11.1869 46.3091 11.5483L45.5973 14.4504C45.381 15.3327 46.3581 16.0231 47.1174 15.5245L49.447 13.9948C49.7802 13.776 50.2115 13.776 50.5447 13.9948L52.8743 15.5245C53.6336 16.0231 54.6107 15.3327 54.3944 14.4504L53.6828 11.5487C53.5941 11.1871 53.7136 10.8062 53.993 10.5601L56.1999 8.61628Z" fill="#FF9737"/>
<path d="M77.1999 8.61628C77.8666 8.02897 77.4935 6.92874 76.607 6.86819L73.8225 6.67801C73.4339 6.65148 73.0961 6.40179 72.9568 6.03814L71.9296 3.35744C71.6015 2.50117 70.3901 2.50118 70.062 3.35744L69.0349 6.03819C68.8955 6.40182 68.5578 6.65149 68.1693 6.67806L65.3884 6.86819C64.5023 6.92878 64.129 8.02828 64.7951 8.61581L66.9993 10.5601C67.2784 10.8063 67.3977 11.1869 67.3091 11.5483L66.5973 14.4504C66.381 15.3327 67.3581 16.0231 68.1174 15.5245L70.447 13.9948C70.7802 13.776 71.2115 13.776 71.5447 13.9948L73.8743 15.5245C74.6336 16.0231 75.6107 15.3327 75.3944 14.4504L74.6828 11.5487C74.5941 11.1871 74.7136 10.8062 74.993 10.5601L77.1999 8.61628Z" fill="#FF9737"/>
<path d="M97.573 7.36703C98.0162 7.3973 98.2028 7.94742 97.8694 8.24107L95.6625 10.1849C95.2434 10.5541 95.0641 11.1254 95.1971 11.6678L95.9088 14.5695C96.0169 15.0107 95.5284 15.3559 95.1487 15.1066L92.8192 13.5769C92.3193 13.2487 91.6723 13.2487 91.1725 13.5769L88.843 15.1065C88.4633 15.3559 87.9748 15.0106 88.0829 14.5695L88.7947 11.6674C88.9276 11.1253 88.7486 10.5543 88.3301 10.1852L86.1258 8.24083C85.7928 7.94707 85.9794 7.39732 86.4225 7.36703L89.2034 7.17689C89.7861 7.13705 90.2928 6.76254 90.5018 6.21709L91.5289 3.53634C91.693 3.10821 92.2987 3.10821 92.4627 3.53634L93.4899 6.21704C93.6989 6.76252 94.2056 7.13705 94.7884 7.17685L97.573 7.36703Z" stroke="#FF9737"/>
</svg>
