<svg width="18" height="19" viewBox="0 0 18 19" fill="none" xmlns="http://www.w3.org/2000/svg">
<path fill-rule="evenodd" clip-rule="evenodd" d="M4.4966e-05 0.920538H18V18.9205H4.4966e-05V0.920538Z" fill="black"/>
<path fill-rule="evenodd" clip-rule="evenodd" d="M8.12803 11.8294L11.5039 17.3063C11.6516 17.5463 11.8824 17.5435 11.9756 17.5306C12.0688 17.5177 12.2932 17.4604 12.3744 17.1881L16.5958 2.93047C16.6697 2.67846 16.534 2.50675 16.4731 2.44583C16.414 2.3849 16.2451 2.25474 16.0004 2.32398L1.73262 6.50204C1.46214 6.58143 1.40306 6.80851 1.39014 6.90175C1.37722 6.99683 1.37352 7.23223 1.61261 7.3827L7.15228 10.8472L12.0467 5.90108C12.3153 5.62968 12.7538 5.62691 13.0261 5.89554C13.2984 6.16417 13.3003 6.60358 13.0317 6.87498L8.12803 11.8294ZM11.9036 18.9209C11.2611 18.9209 10.6722 18.5941 10.3251 18.0329L6.74614 12.2255L0.878763 8.55606C0.246423 8.16004 -0.0840551 7.45477 0.0184117 6.7135C0.119955 5.97223 0.628597 5.38328 1.34309 5.17373L15.6109 0.99567C16.2672 0.80366 16.9707 0.985516 17.4544 1.46739C17.9381 1.95387 18.1181 2.66468 17.9224 3.32379L13.701 17.5805C13.4896 18.2978 12.8988 18.8046 12.1593 18.9034C12.0726 18.9144 11.9886 18.9209 11.9036 18.9209Z" fill="white"/>
</svg>
