<svg width="24" height="25" viewBox="0 0 24 25" fill="none" xmlns="http://www.w3.org/2000/svg">
<path fill-rule="evenodd" clip-rule="evenodd" d="M14.8491 6.57828C14.3922 6.57809 13.941 6.67933 13.5281 6.8747C13.1151 7.07006 12.7507 7.35468 12.4611 7.708C12.1715 8.06132 11.9639 8.47453 11.8534 8.9178C11.7429 9.36108 11.7322 9.82336 11.8221 10.2713C11.853 10.4265 11.8467 10.5868 11.8036 10.7391C11.7605 10.8913 11.6819 11.0312 11.5742 11.1472C11.4665 11.2632 11.3329 11.3519 11.1842 11.4062C11.0355 11.4604 10.8761 11.4786 10.7191 11.4593C8.56879 11.1951 6.54179 10.3112 4.88506 8.91528C4.91606 9.51728 5.12506 10.1573 5.57806 10.8273L6.25706 11.8313L5.14206 12.3063L4.92706 12.3983C5.08706 12.5813 5.27906 12.7683 5.49406 12.9533C5.78148 13.1993 6.08553 13.4252 6.40406 13.6293L6.41506 13.6363H6.41606L7.96406 14.5753L6.34406 15.3853C6.26406 15.4253 6.18406 15.4613 6.10406 15.4933C6.4524 15.7827 6.83615 16.0267 7.24606 16.2193L8.63606 16.8763L7.47206 17.8803C6.83706 18.4283 6.19806 18.8373 5.36906 19.0533C6.6405 19.7305 8.0595 20.0833 9.50006 20.0803C14.3061 20.0803 18.1761 16.2453 18.1761 11.5463V11.0263L18.6011 10.7273C19.2651 10.2613 19.7341 9.63128 20.0701 8.91028H17.9101L17.6381 8.34028C17.3876 7.81295 16.9927 7.36748 16.4992 7.05559C16.0057 6.7437 15.4339 6.57819 14.8501 6.57828H14.8491ZM3.56906 13.8783C3.4747 13.9864 3.40469 14.1135 3.3638 14.251C3.3229 14.3885 3.31208 14.5332 3.33206 14.6753C3.44506 15.4763 3.92406 16.1663 4.45406 16.6933C4.59806 16.8363 4.75206 16.9733 4.91406 17.1043L4.83906 17.1243C4.35806 17.2443 3.70906 17.2693 2.62806 17.1643C2.42392 17.1442 2.21856 17.1875 2.03981 17.2881C1.86107 17.3887 1.7176 17.5419 1.62885 17.7268C1.5401 17.9117 1.51036 18.1195 1.54367 18.3219C1.57698 18.5243 1.67173 18.7115 1.81506 18.8583C2.81583 19.8812 4.01135 20.6933 5.33108 21.2467C6.65081 21.8001 8.06801 22.0835 9.49906 22.0803C15.2121 22.0803 19.8981 17.6443 20.1631 12.0463C21.4531 10.9633 22.0981 9.49628 22.4461 8.16328C22.4848 8.01533 22.489 7.86048 22.4585 7.71063C22.4279 7.56079 22.3634 7.41994 22.2699 7.29892C22.1765 7.1779 22.0565 7.07994 21.9192 7.01257C21.7819 6.94519 21.631 6.9102 21.4781 6.91028H19.1251C18.5495 6.0166 17.7084 5.32572 16.72 4.93471C15.7315 4.54371 14.6454 4.47223 13.6142 4.73032C12.583 4.98842 11.6587 5.56312 10.9709 6.37366C10.2832 7.1842 9.86676 8.18984 9.78006 9.24928C7.93672 8.76943 6.28739 7.73008 5.05906 6.27428C4.95028 6.14566 4.81077 6.04661 4.65348 5.98631C4.49619 5.92601 4.32622 5.90643 4.15933 5.92937C3.99245 5.95231 3.83407 6.01704 3.69888 6.11755C3.5637 6.21805 3.4561 6.35108 3.38606 6.50428C2.78006 7.82628 2.66406 9.35028 3.34006 10.9003L3.10606 11.0003C2.88213 11.0957 2.7007 11.2695 2.59576 11.4891C2.49083 11.7088 2.4696 11.9591 2.53606 12.1933C2.72206 12.8453 3.14006 13.4213 3.56806 13.8783H3.56906Z" fill="white"/>
</svg>
